<svg xmlns="http://www.w3.org/2000/svg" xmlns:xlink="http://www.w3.org/1999/xlink" width="500" zoomAndPan="magnify" viewBox="0 0 375 374.999991" height="500" preserveAspectRatio="xMidYMid meet" version="1.0"><defs><g/><clipPath id="828d46a8ff"><path d="M 127.605469 173 L 158 173 L 158 189 L 127.605469 189 Z M 127.605469 173 " clip-rule="nonzero"/></clipPath><clipPath id="562fd44ff0"><path d="M 158 114 L 247.605469 114 L 247.605469 218.128906 L 158 218.128906 Z M 158 114 " clip-rule="nonzero"/></clipPath><clipPath id="c3533b2a71"><path d="M 212 100.378906 L 237 100.378906 L 237 125 L 212 125 Z M 212 100.378906 " clip-rule="nonzero"/></clipPath></defs><rect x="-37.5" width="450" fill="#ffffff" y="-37.499999" height="449.999989" fill-opacity="1"/><rect x="-37.5" width="450" fill="#ffffff" y="-37.499999" height="449.999989" fill-opacity="1"/><rect x="-37.5" width="450" fill="#ffffff" y="-37.499999" height="449.999989" fill-opacity="1"/><g clip-path="url(#828d46a8ff)"><path fill="#6777ef" d="M 134.128906 173.417969 L 127.652344 183.9375 C 139.726562 182.035156 149.550781 183.664062 157.101562 188.835938 C 151.613281 181.566406 143.953125 176.421875 134.121094 173.417969 Z M 134.128906 173.417969 " fill-opacity="1" fill-rule="evenodd"/></g><path fill="#000000" d="M 128.796875 167.902344 C 142.835938 169.785156 153.738281 176.667969 161.488281 188.535156 C 159.550781 176.550781 153.464844 167.003906 143.210938 159.878906 Z M 128.796875 167.902344 " fill-opacity="1" fill-rule="evenodd"/><path fill="#6777ef" d="M 135.902344 148.203125 C 155.046875 160.523438 165.421875 177.476562 167.023438 199.046875 C 170.222656 182.035156 165.449219 166.789062 152.71875 153.308594 C 163.386719 150.253906 171.605469 143.03125 177.367188 131.640625 C 196.378906 164.671875 190.320312 191.0625 159.195312 210.828125 C 198.617188 197.203125 204.539062 155.660156 176.957031 118.71875 C 170.8125 139.246094 157.132812 149.074219 135.910156 148.203125 Z M 135.902344 148.203125 " fill-opacity="1" fill-rule="evenodd"/><g clip-path="url(#562fd44ff0)"><path fill="#000000" d="M 183.121094 114.140625 C 215.957031 155.59375 205.515625 202.550781 158.050781 218.128906 C 207.816406 215.257812 237.648438 183.546875 247.570312 122.992188 C 234.480469 140.699219 212.992188 137.75 183.121094 114.140625 Z M 183.121094 114.140625 " fill-opacity="1" fill-rule="evenodd"/></g><g clip-path="url(#c3533b2a71)"><path fill="#000000" d="M 224.164062 124.339844 C 230.78125 124.339844 236.179688 118.960938 236.179688 112.355469 C 236.179688 105.757812 230.789062 100.367188 224.164062 100.367188 C 217.550781 100.367188 212.152344 105.746094 212.152344 112.355469 C 212.152344 118.953125 217.550781 124.339844 224.164062 124.339844 Z M 224.164062 124.339844 " fill-opacity="1" fill-rule="evenodd"/></g><path fill="#6777ef" d="M 177.738281 163.117188 C 178.128906 163.800781 177.925781 164.476562 177.101562 165.128906 L 175.566406 162.464844 C 176.191406 162.359375 176.671875 162.359375 176.984375 162.453125 C 177.296875 162.5625 177.554688 162.777344 177.75 163.109375 Z M 171.859375 160.199219 C 171.222656 160.308594 170.761719 160.308594 170.460938 160.199219 C 170.15625 160.082031 169.921875 159.886719 169.753906 159.59375 C 169.578125 159.292969 169.53125 158.96875 169.617188 158.640625 C 169.707031 158.308594 169.949219 157.976562 170.378906 157.644531 L 171.867188 160.210938 Z M 180.4375 161.371094 C 179.824219 160.308594 179 159.644531 177.972656 159.378906 C 176.945312 159.117188 175.597656 159.203125 173.921875 159.644531 L 172.257812 156.773438 C 172.71875 156.636719 173.207031 156.558594 173.71875 156.53125 C 174.226562 156.5 174.746094 156.5 175.273438 156.539062 L 175.261719 153.582031 C 174.53125 153.515625 173.804688 153.535156 173.089844 153.632812 C 172.375 153.730469 171.652344 153.925781 170.898438 154.21875 L 170.242188 153.074219 L 168.257812 154.21875 L 168.894531 155.320312 C 168.335938 155.730469 167.867188 156.167969 167.484375 156.65625 C 167.101562 157.136719 166.828125 157.644531 166.671875 158.171875 C 166.507812 158.699219 166.457031 159.222656 166.515625 159.769531 C 166.574219 160.308594 166.761719 160.84375 167.0625 161.382812 C 167.386719 161.9375 167.757812 162.378906 168.167969 162.707031 C 168.589844 163.03125 169.058594 163.253906 169.578125 163.382812 C 170.097656 163.507812 170.683594 163.539062 171.328125 163.46875 C 171.976562 163.410156 172.699219 163.273438 173.503906 163.070312 L 175.253906 166.09375 C 174.617188 166.308594 173.980469 166.425781 173.335938 166.445312 C 172.699219 166.464844 172.003906 166.4375 171.25 166.339844 L 171.015625 169.367188 C 171.925781 169.484375 172.867188 169.472656 173.804688 169.335938 C 174.753906 169.199219 175.675781 168.957031 176.554688 168.574219 L 177.671875 170.496094 L 179.65625 169.355469 L 178.570312 167.472656 C 179.148438 167.0625 179.617188 166.601562 180 166.113281 C 180.378906 165.628906 180.644531 165.121094 180.8125 164.59375 C 180.976562 164.066406 181.027344 163.539062 180.976562 162.992188 C 180.929688 162.445312 180.742188 161.910156 180.4375 161.382812 Z M 180.4375 161.371094 " fill-opacity="1" fill-rule="evenodd"/><g fill="#000000" fill-opacity="1"><g transform="translate(75.637857, 252.912952)"><g><path d="M 14.734375 -34.015625 C 16.546875 -34.015625 18.316406 -33.75 20.046875 -33.21875 C 21.773438 -32.695312 23.054688 -32.179688 23.890625 -31.671875 L 25.109375 -30.859375 L 22.03125 -24.78125 C 21.789062 -24.945312 21.453125 -25.15625 21.015625 -25.40625 C 20.585938 -25.664062 19.78125 -26.007812 18.59375 -26.4375 C 17.40625 -26.875 16.296875 -27.09375 15.265625 -27.09375 C 13.992188 -27.09375 13.015625 -26.820312 12.328125 -26.28125 C 11.640625 -25.738281 11.296875 -25.007812 11.296875 -24.09375 C 11.296875 -23.632812 11.457031 -23.207031 11.78125 -22.8125 C 12.101562 -22.425781 12.65625 -22.007812 13.4375 -21.5625 C 14.226562 -21.113281 14.921875 -20.753906 15.515625 -20.484375 C 16.109375 -20.222656 17.023438 -19.820312 18.265625 -19.28125 C 20.421875 -18.363281 22.257812 -17.113281 23.78125 -15.53125 C 25.3125 -13.945312 26.078125 -12.160156 26.078125 -10.171875 C 26.078125 -8.253906 25.734375 -6.578125 25.046875 -5.140625 C 24.359375 -3.710938 23.410156 -2.59375 22.203125 -1.78125 C 21.003906 -0.96875 19.675781 -0.367188 18.21875 0.015625 C 16.757812 0.410156 15.179688 0.609375 13.484375 0.609375 C 12.023438 0.609375 10.59375 0.457031 9.1875 0.15625 C 7.789062 -0.132812 6.617188 -0.503906 5.671875 -0.953125 C 4.722656 -1.398438 3.867188 -1.835938 3.109375 -2.265625 C 2.359375 -2.703125 1.804688 -3.066406 1.453125 -3.359375 L 0.9375 -3.8125 L 4.734375 -10.203125 C 5.054688 -9.929688 5.5 -9.585938 6.0625 -9.171875 C 6.632812 -8.753906 7.644531 -8.191406 9.09375 -7.484375 C 10.539062 -6.785156 11.816406 -6.4375 12.921875 -6.4375 C 16.128906 -6.4375 17.734375 -7.53125 17.734375 -9.71875 C 17.734375 -10.175781 17.617188 -10.597656 17.390625 -10.984375 C 17.160156 -11.378906 16.753906 -11.769531 16.171875 -12.15625 C 15.597656 -12.550781 15.085938 -12.863281 14.640625 -13.09375 C 14.191406 -13.332031 13.460938 -13.6875 12.453125 -14.15625 C 11.441406 -14.625 10.691406 -14.984375 10.203125 -15.234375 C 8.179688 -16.222656 6.613281 -17.46875 5.5 -18.96875 C 4.394531 -20.46875 3.84375 -22.082031 3.84375 -23.8125 C 3.84375 -26.8125 4.945312 -29.257812 7.15625 -31.15625 C 9.375 -33.0625 11.898438 -34.015625 14.734375 -34.015625 Z M 14.734375 -34.015625 "/></g></g></g><g fill="#000000" fill-opacity="1"><g transform="translate(102.044146, 252.912952)"><g><path d="M 23.453125 -9.390625 L 8.390625 -9.390625 C 8.390625 -7.929688 8.859375 -6.851562 9.796875 -6.15625 C 10.742188 -5.457031 11.769531 -5.109375 12.875 -5.109375 C 14.039062 -5.109375 14.957031 -5.257812 15.625 -5.5625 C 16.300781 -5.875 17.070312 -6.488281 17.9375 -7.40625 L 23.125 -4.8125 C 20.96875 -1.195312 17.378906 0.609375 12.359375 0.609375 C 9.222656 0.609375 6.535156 -0.460938 4.296875 -2.609375 C 2.054688 -4.753906 0.9375 -7.335938 0.9375 -10.359375 C 0.9375 -13.390625 2.054688 -15.984375 4.296875 -18.140625 C 6.535156 -20.304688 9.222656 -21.390625 12.359375 -21.390625 C 15.648438 -21.390625 18.328125 -20.4375 20.390625 -18.53125 C 22.453125 -16.625 23.484375 -13.90625 23.484375 -10.375 C 23.484375 -9.882812 23.472656 -9.554688 23.453125 -9.390625 Z M 8.59375 -13.359375 L 16.484375 -13.359375 C 16.316406 -14.441406 15.890625 -15.269531 15.203125 -15.84375 C 14.515625 -16.425781 13.632812 -16.71875 12.5625 -16.71875 C 11.363281 -16.71875 10.414062 -16.40625 9.71875 -15.78125 C 9.019531 -15.164062 8.644531 -14.359375 8.59375 -13.359375 Z M 8.59375 -13.359375 "/></g></g></g><g fill="#000000" fill-opacity="1"><g transform="translate(125.655897, 252.912952)"><g><path d="M 7.6875 -20.78125 L 12.75 -9.484375 L 17.8125 -20.78125 L 26.328125 -20.78125 L 15.1875 0 L 10.328125 0 L -0.8125 -20.78125 Z M 7.6875 -20.78125 "/></g></g></g><g fill="#000000" fill-opacity="1"><g transform="translate(150.361159, 252.912952)"><g><path d="M 23.453125 -9.390625 L 8.390625 -9.390625 C 8.390625 -7.929688 8.859375 -6.851562 9.796875 -6.15625 C 10.742188 -5.457031 11.769531 -5.109375 12.875 -5.109375 C 14.039062 -5.109375 14.957031 -5.257812 15.625 -5.5625 C 16.300781 -5.875 17.070312 -6.488281 17.9375 -7.40625 L 23.125 -4.8125 C 20.96875 -1.195312 17.378906 0.609375 12.359375 0.609375 C 9.222656 0.609375 6.535156 -0.460938 4.296875 -2.609375 C 2.054688 -4.753906 0.9375 -7.335938 0.9375 -10.359375 C 0.9375 -13.390625 2.054688 -15.984375 4.296875 -18.140625 C 6.535156 -20.304688 9.222656 -21.390625 12.359375 -21.390625 C 15.648438 -21.390625 18.328125 -20.4375 20.390625 -18.53125 C 22.453125 -16.625 23.484375 -13.90625 23.484375 -10.375 C 23.484375 -9.882812 23.472656 -9.554688 23.453125 -9.390625 Z M 8.59375 -13.359375 L 16.484375 -13.359375 C 16.316406 -14.441406 15.890625 -15.269531 15.203125 -15.84375 C 14.515625 -16.425781 13.632812 -16.71875 12.5625 -16.71875 C 11.363281 -16.71875 10.414062 -16.40625 9.71875 -15.78125 C 9.019531 -15.164062 8.644531 -14.359375 8.59375 -13.359375 Z M 8.59375 -13.359375 "/></g></g></g><g fill="#000000" fill-opacity="1"><g transform="translate(173.972912, 252.912952)"><g><path d="M 2.4375 0 L 2.4375 -20.78125 L 9.59375 -20.78125 L 9.59375 -18.59375 L 9.671875 -18.59375 C 11.535156 -20.457031 13.523438 -21.390625 15.640625 -21.390625 C 16.660156 -21.390625 17.675781 -21.253906 18.6875 -20.984375 C 19.695312 -20.710938 20.664062 -20.289062 21.59375 -19.71875 C 22.53125 -19.15625 23.289062 -18.351562 23.875 -17.3125 C 24.457031 -16.269531 24.75 -15.0625 24.75 -13.6875 L 24.75 0 L 17.578125 0 L 17.578125 -11.75 C 17.578125 -12.820312 17.234375 -13.765625 16.546875 -14.578125 C 15.859375 -15.390625 14.957031 -15.796875 13.84375 -15.796875 C 12.769531 -15.796875 11.789062 -15.375 10.90625 -14.53125 C 10.03125 -13.695312 9.59375 -12.769531 9.59375 -11.75 L 9.59375 0 Z M 2.4375 0 "/></g></g></g><g fill="#000000" fill-opacity="1"><g transform="translate(199.933693, 252.912952)"><g><path d="M 3.640625 -20.78125 L 3.640625 -28.515625 L 10.8125 -28.515625 L 10.8125 -20.78125 L 15.1875 -20.78125 L 15.1875 -15.3125 L 10.8125 -15.3125 L 10.8125 -8.703125 C 10.8125 -6.785156 11.351562 -5.828125 12.4375 -5.828125 C 12.707031 -5.828125 12.988281 -5.878906 13.28125 -5.984375 C 13.582031 -6.097656 13.8125 -6.207031 13.96875 -6.3125 L 14.21875 -6.484375 L 16 -0.6875 C 14.457031 0.175781 12.703125 0.609375 10.734375 0.609375 C 9.378906 0.609375 8.21875 0.375 7.25 -0.09375 C 6.28125 -0.570312 5.546875 -1.207031 5.046875 -2 C 4.546875 -2.800781 4.1875 -3.640625 3.96875 -4.515625 C 3.75 -5.390625 3.640625 -6.328125 3.640625 -7.328125 L 3.640625 -15.3125 L 0.640625 -15.3125 L 0.640625 -20.78125 Z M 3.640625 -20.78125 "/></g></g></g><g fill="#000000" fill-opacity="1"><g transform="translate(215.121334, 252.912952)"><g><path d="M 23.453125 -9.390625 L 8.390625 -9.390625 C 8.390625 -7.929688 8.859375 -6.851562 9.796875 -6.15625 C 10.742188 -5.457031 11.769531 -5.109375 12.875 -5.109375 C 14.039062 -5.109375 14.957031 -5.257812 15.625 -5.5625 C 16.300781 -5.875 17.070312 -6.488281 17.9375 -7.40625 L 23.125 -4.8125 C 20.96875 -1.195312 17.378906 0.609375 12.359375 0.609375 C 9.222656 0.609375 6.535156 -0.460938 4.296875 -2.609375 C 2.054688 -4.753906 0.9375 -7.335938 0.9375 -10.359375 C 0.9375 -13.390625 2.054688 -15.984375 4.296875 -18.140625 C 6.535156 -20.304688 9.222656 -21.390625 12.359375 -21.390625 C 15.648438 -21.390625 18.328125 -20.4375 20.390625 -18.53125 C 22.453125 -16.625 23.484375 -13.90625 23.484375 -10.375 C 23.484375 -9.882812 23.472656 -9.554688 23.453125 -9.390625 Z M 8.59375 -13.359375 L 16.484375 -13.359375 C 16.316406 -14.441406 15.890625 -15.269531 15.203125 -15.84375 C 14.515625 -16.425781 13.632812 -16.71875 12.5625 -16.71875 C 11.363281 -16.71875 10.414062 -16.40625 9.71875 -15.78125 C 9.019531 -15.164062 8.644531 -14.359375 8.59375 -13.359375 Z M 8.59375 -13.359375 "/></g></g></g><g fill="#000000" fill-opacity="1"><g transform="translate(238.733087, 252.912952)"><g><path d="M 23.453125 -9.390625 L 8.390625 -9.390625 C 8.390625 -7.929688 8.859375 -6.851562 9.796875 -6.15625 C 10.742188 -5.457031 11.769531 -5.109375 12.875 -5.109375 C 14.039062 -5.109375 14.957031 -5.257812 15.625 -5.5625 C 16.300781 -5.875 17.070312 -6.488281 17.9375 -7.40625 L 23.125 -4.8125 C 20.96875 -1.195312 17.378906 0.609375 12.359375 0.609375 C 9.222656 0.609375 6.535156 -0.460938 4.296875 -2.609375 C 2.054688 -4.753906 0.9375 -7.335938 0.9375 -10.359375 C 0.9375 -13.390625 2.054688 -15.984375 4.296875 -18.140625 C 6.535156 -20.304688 9.222656 -21.390625 12.359375 -21.390625 C 15.648438 -21.390625 18.328125 -20.4375 20.390625 -18.53125 C 22.453125 -16.625 23.484375 -13.90625 23.484375 -10.375 C 23.484375 -9.882812 23.472656 -9.554688 23.453125 -9.390625 Z M 8.59375 -13.359375 L 16.484375 -13.359375 C 16.316406 -14.441406 15.890625 -15.269531 15.203125 -15.84375 C 14.515625 -16.425781 13.632812 -16.71875 12.5625 -16.71875 C 11.363281 -16.71875 10.414062 -16.40625 9.71875 -15.78125 C 9.019531 -15.164062 8.644531 -14.359375 8.59375 -13.359375 Z M 8.59375 -13.359375 "/></g></g></g><g fill="#000000" fill-opacity="1"><g transform="translate(262.34484, 252.912952)"><g><path d="M 2.4375 0 L 2.4375 -20.78125 L 9.59375 -20.78125 L 9.59375 -18.59375 L 9.671875 -18.59375 C 11.535156 -20.457031 13.523438 -21.390625 15.640625 -21.390625 C 16.660156 -21.390625 17.675781 -21.253906 18.6875 -20.984375 C 19.695312 -20.710938 20.664062 -20.289062 21.59375 -19.71875 C 22.53125 -19.15625 23.289062 -18.351562 23.875 -17.3125 C 24.457031 -16.269531 24.75 -15.0625 24.75 -13.6875 L 24.75 0 L 17.578125 0 L 17.578125 -11.75 C 17.578125 -12.820312 17.234375 -13.765625 16.546875 -14.578125 C 15.859375 -15.390625 14.957031 -15.796875 13.84375 -15.796875 C 12.769531 -15.796875 11.789062 -15.375 10.90625 -14.53125 C 10.03125 -13.695312 9.59375 -12.769531 9.59375 -11.75 L 9.59375 0 Z M 2.4375 0 "/></g></g></g><g fill="#000000" fill-opacity="1"><g transform="translate(288.304257, 252.912952)"><g/></g></g><g fill="#6777ef" fill-opacity="1"><g transform="translate(93.238235, 271.287716)"><g><path d="M 6.203125 0 L 5.875 -4.09375 L 5.828125 -4.09375 L 4.421875 -0.046875 L 3.484375 -0.046875 L 2.078125 -4.09375 L 2.03125 -4.09375 L 1.703125 0 L 0.140625 0 L 0.75 -6.890625 L 2.421875 -6.890625 L 3.953125 -2.921875 L 5.484375 -6.890625 L 7.15625 -6.890625 L 7.78125 0 Z M 6.203125 0 "/></g></g></g><g fill="#6777ef" fill-opacity="1"><g transform="translate(105.941931, 271.287716)"><g><path d="M 2.078125 -6.890625 L 2.078125 0 L 0.5 0 L 0.5 -6.890625 Z M 2.078125 -6.890625 "/></g></g></g><g fill="#6777ef" fill-opacity="1"><g transform="translate(113.316911, 271.287716)"><g><path d="M 2.078125 -4.28125 L 2.078125 0 L 0.5 0 L 0.5 -6.890625 L 2.078125 -6.890625 L 4.8125 -2.609375 L 4.828125 -2.609375 L 4.828125 -6.890625 L 6.40625 -6.890625 L 6.40625 0 L 4.828125 0 L 2.09375 -4.28125 Z M 2.078125 -4.28125 "/></g></g></g><g fill="#6777ef" fill-opacity="1"><g transform="translate(125.018334, 271.287716)"><g><path d="M 2.078125 -6.890625 L 2.078125 0 L 0.5 0 L 0.5 -6.890625 Z M 2.078125 -6.890625 "/></g></g></g><g fill="#6777ef" fill-opacity="1"><g transform="translate(132.393316, 271.287716)"><g/></g></g><g fill="#6777ef" fill-opacity="1"><g transform="translate(139.475962, 271.287716)"><g><path d="M 0.5 -6.890625 L 2.640625 -6.890625 C 3.285156 -6.890625 3.800781 -6.75 4.1875 -6.46875 C 4.570312 -6.195312 4.765625 -5.753906 4.765625 -5.140625 C 4.765625 -4.453125 4.476562 -3.957031 3.90625 -3.65625 C 4.882812 -3.488281 5.375 -2.910156 5.375 -1.921875 C 5.375 -1.335938 5.171875 -0.867188 4.765625 -0.515625 C 4.367188 -0.171875 3.820312 0 3.125 0 L 0.5 0 Z M 2.078125 -4.203125 L 2.203125 -4.203125 C 2.546875 -4.203125 2.804688 -4.257812 2.984375 -4.375 C 3.160156 -4.5 3.25 -4.703125 3.25 -4.984375 C 3.25 -5.453125 2.898438 -5.6875 2.203125 -5.6875 L 2.078125 -5.6875 Z M 2.078125 -1.21875 L 2.5625 -1.21875 C 3.332031 -1.21875 3.71875 -1.472656 3.71875 -1.984375 C 3.71875 -2.285156 3.617188 -2.503906 3.421875 -2.640625 C 3.234375 -2.773438 2.945312 -2.84375 2.5625 -2.84375 L 2.078125 -2.84375 Z M 2.078125 -1.21875 "/></g></g></g><g fill="#6777ef" fill-opacity="1"><g transform="translate(149.841033, 271.287716)"><g><path d="M 4 -6.890625 L 6.78125 0 L 5.09375 0 L 4.59375 -1.375 L 1.96875 -1.375 L 1.453125 0 L -0.234375 0 L 2.546875 -6.890625 Z M 4.046875 -2.765625 L 3.28125 -4.765625 L 3.265625 -4.765625 L 2.5 -2.765625 Z M 4.046875 -2.765625 "/></g></g></g><g fill="#6777ef" fill-opacity="1"><g transform="translate(161.191669, 271.287716)"><g><path d="M 2.078125 -4.28125 L 2.078125 0 L 0.5 0 L 0.5 -6.890625 L 2.078125 -6.890625 L 4.8125 -2.609375 L 4.828125 -2.609375 L 4.828125 -6.890625 L 6.40625 -6.890625 L 6.40625 0 L 4.828125 0 L 2.09375 -4.28125 Z M 2.078125 -4.28125 "/></g></g></g><g fill="#6777ef" fill-opacity="1"><g transform="translate(172.893095, 271.287716)"><g><path d="M 6.78125 0 L 4.609375 0 L 2.078125 -2.921875 L 2.078125 0 L 0.5 0 L 0.5 -6.890625 L 2.078125 -6.890625 L 2.078125 -4.078125 L 4.4375 -6.890625 L 6.34375 -6.890625 L 3.5625 -3.625 Z M 6.78125 0 "/></g></g></g><g fill="#6777ef" fill-opacity="1"><g transform="translate(184.268785, 271.287716)"><g/></g></g><g fill="#6777ef" fill-opacity="1"><g transform="translate(191.351426, 271.287716)"><g><path d="M 0.1875 -3.453125 C 0.1875 -4.453125 0.523438 -5.296875 1.203125 -5.984375 C 1.890625 -6.671875 2.710938 -7.015625 3.671875 -7.015625 C 4.628906 -7.015625 5.445312 -6.671875 6.125 -5.984375 C 6.800781 -5.296875 7.140625 -4.453125 7.140625 -3.453125 C 7.140625 -2.441406 6.804688 -1.59375 6.140625 -0.90625 C 5.484375 -0.21875 4.660156 0.125 3.671875 0.125 C 2.660156 0.125 1.828125 -0.210938 1.171875 -0.890625 C 0.515625 -1.578125 0.1875 -2.429688 0.1875 -3.453125 Z M 1.890625 -3.453125 C 1.890625 -3.085938 1.941406 -2.753906 2.046875 -2.453125 C 2.160156 -2.160156 2.359375 -1.910156 2.640625 -1.703125 C 2.921875 -1.492188 3.265625 -1.390625 3.671875 -1.390625 C 4.253906 -1.390625 4.691406 -1.585938 4.984375 -1.984375 C 5.285156 -2.390625 5.4375 -2.878906 5.4375 -3.453125 C 5.4375 -4.015625 5.285156 -4.5 4.984375 -4.90625 C 4.679688 -5.3125 4.242188 -5.515625 3.671875 -5.515625 C 3.097656 -5.515625 2.65625 -5.3125 2.34375 -4.90625 C 2.039062 -4.5 1.890625 -4.015625 1.890625 -3.453125 Z M 1.890625 -3.453125 "/></g></g></g><g fill="#6777ef" fill-opacity="1"><g transform="translate(203.478817, 271.287716)"><g><path d="M 4.484375 -6.890625 L 4.484375 -5.515625 L 2.078125 -5.515625 L 2.078125 -4.140625 L 4.3125 -4.140625 L 4.3125 -2.765625 L 2.078125 -2.765625 L 2.078125 0 L 0.5 0 L 0.5 -6.890625 Z M 4.484375 -6.890625 "/></g></g></g><g fill="#6777ef" fill-opacity="1"><g transform="translate(213.017015, 271.287716)"><g/></g></g><g fill="#6777ef" fill-opacity="1"><g transform="translate(220.099656, 271.287716)"><g><path d="M 3.046875 -7.015625 C 3.421875 -7.015625 3.785156 -6.960938 4.140625 -6.859375 C 4.492188 -6.753906 4.757812 -6.644531 4.9375 -6.53125 L 5.1875 -6.375 L 4.546875 -5.109375 C 4.492188 -5.148438 4.421875 -5.195312 4.328125 -5.25 C 4.242188 -5.300781 4.078125 -5.367188 3.828125 -5.453125 C 3.585938 -5.546875 3.363281 -5.59375 3.15625 -5.59375 C 2.894531 -5.59375 2.691406 -5.535156 2.546875 -5.421875 C 2.398438 -5.316406 2.328125 -5.164062 2.328125 -4.96875 C 2.328125 -4.875 2.359375 -4.785156 2.421875 -4.703125 C 2.492188 -4.628906 2.609375 -4.546875 2.765625 -4.453125 C 2.929688 -4.359375 3.078125 -4.28125 3.203125 -4.21875 C 3.328125 -4.164062 3.515625 -4.085938 3.765625 -3.984375 C 4.210938 -3.785156 4.59375 -3.523438 4.90625 -3.203125 C 5.226562 -2.878906 5.390625 -2.507812 5.390625 -2.09375 C 5.390625 -1.695312 5.316406 -1.351562 5.171875 -1.0625 C 5.023438 -0.769531 4.828125 -0.535156 4.578125 -0.359375 C 4.335938 -0.191406 4.066406 -0.0703125 3.765625 0 C 3.460938 0.0820312 3.132812 0.125 2.78125 0.125 C 2.476562 0.125 2.179688 0.09375 1.890625 0.03125 C 1.609375 -0.03125 1.367188 -0.101562 1.171875 -0.1875 C 0.972656 -0.28125 0.796875 -0.375 0.640625 -0.46875 C 0.484375 -0.5625 0.367188 -0.632812 0.296875 -0.6875 L 0.1875 -0.78125 L 0.984375 -2.109375 C 1.046875 -2.046875 1.132812 -1.972656 1.25 -1.890625 C 1.363281 -1.804688 1.570312 -1.691406 1.875 -1.546875 C 2.175781 -1.398438 2.441406 -1.328125 2.671875 -1.328125 C 3.328125 -1.328125 3.65625 -1.550781 3.65625 -2 C 3.65625 -2.09375 3.628906 -2.179688 3.578125 -2.265625 C 3.535156 -2.347656 3.453125 -2.429688 3.328125 -2.515625 C 3.210938 -2.597656 3.109375 -2.660156 3.015625 -2.703125 C 2.929688 -2.753906 2.78125 -2.828125 2.5625 -2.921875 C 2.351562 -3.015625 2.203125 -3.085938 2.109375 -3.140625 C 1.691406 -3.347656 1.367188 -3.601562 1.140625 -3.90625 C 0.910156 -4.21875 0.796875 -4.554688 0.796875 -4.921875 C 0.796875 -5.535156 1.023438 -6.035156 1.484375 -6.421875 C 1.941406 -6.816406 2.460938 -7.015625 3.046875 -7.015625 Z M 3.046875 -7.015625 "/></g></g></g><g fill="#6777ef" fill-opacity="1"><g transform="translate(230.514839, 271.287716)"><g><path d="M 4.171875 -1.421875 C 4.410156 -1.421875 4.640625 -1.457031 4.859375 -1.53125 C 5.085938 -1.601562 5.253906 -1.671875 5.359375 -1.734375 L 5.53125 -1.84375 L 6.1875 -0.515625 C 6.164062 -0.492188 6.132812 -0.46875 6.09375 -0.4375 C 6.0625 -0.414062 5.972656 -0.363281 5.828125 -0.28125 C 5.691406 -0.207031 5.539062 -0.144531 5.375 -0.09375 C 5.207031 -0.0390625 4.992188 0.00390625 4.734375 0.046875 C 4.472656 0.0976562 4.203125 0.125 3.921875 0.125 C 3.285156 0.125 2.679688 -0.03125 2.109375 -0.34375 C 1.535156 -0.65625 1.070312 -1.085938 0.71875 -1.640625 C 0.363281 -2.191406 0.1875 -2.789062 0.1875 -3.4375 C 0.1875 -3.914062 0.289062 -4.378906 0.5 -4.828125 C 0.707031 -5.273438 0.984375 -5.65625 1.328125 -5.96875 C 1.671875 -6.289062 2.066406 -6.546875 2.515625 -6.734375 C 2.972656 -6.921875 3.441406 -7.015625 3.921875 -7.015625 C 4.367188 -7.015625 4.78125 -6.960938 5.15625 -6.859375 C 5.53125 -6.753906 5.796875 -6.648438 5.953125 -6.546875 L 6.1875 -6.390625 L 5.53125 -5.046875 C 5.488281 -5.078125 5.425781 -5.113281 5.34375 -5.15625 C 5.269531 -5.207031 5.113281 -5.269531 4.875 -5.34375 C 4.644531 -5.425781 4.410156 -5.46875 4.171875 -5.46875 C 3.796875 -5.46875 3.457031 -5.40625 3.15625 -5.28125 C 2.851562 -5.164062 2.613281 -5.003906 2.4375 -4.796875 C 2.257812 -4.597656 2.125 -4.382812 2.03125 -4.15625 C 1.9375 -3.925781 1.890625 -3.691406 1.890625 -3.453125 C 1.890625 -2.929688 2.085938 -2.460938 2.484375 -2.046875 C 2.878906 -1.628906 3.441406 -1.421875 4.171875 -1.421875 Z M 4.171875 -1.421875 "/></g></g></g><g fill="#6777ef" fill-opacity="1"><g transform="translate(241.606546, 271.287716)"><g><path d="M 2.078125 -2.765625 L 2.078125 0 L 0.5 0 L 0.5 -6.890625 L 2.078125 -6.890625 L 2.078125 -4.140625 L 4.296875 -4.140625 L 4.296875 -6.890625 L 5.875 -6.890625 L 5.875 0 L 4.296875 0 L 4.296875 -2.765625 Z M 2.078125 -2.765625 "/></g></g></g><g fill="#6777ef" fill-opacity="1"><g transform="translate(252.773424, 271.287716)"><g><path d="M 0.1875 -3.453125 C 0.1875 -4.453125 0.523438 -5.296875 1.203125 -5.984375 C 1.890625 -6.671875 2.710938 -7.015625 3.671875 -7.015625 C 4.628906 -7.015625 5.445312 -6.671875 6.125 -5.984375 C 6.800781 -5.296875 7.140625 -4.453125 7.140625 -3.453125 C 7.140625 -2.441406 6.804688 -1.59375 6.140625 -0.90625 C 5.484375 -0.21875 4.660156 0.125 3.671875 0.125 C 2.660156 0.125 1.828125 -0.210938 1.171875 -0.890625 C 0.515625 -1.578125 0.1875 -2.429688 0.1875 -3.453125 Z M 1.890625 -3.453125 C 1.890625 -3.085938 1.941406 -2.753906 2.046875 -2.453125 C 2.160156 -2.160156 2.359375 -1.910156 2.640625 -1.703125 C 2.921875 -1.492188 3.265625 -1.390625 3.671875 -1.390625 C 4.253906 -1.390625 4.691406 -1.585938 4.984375 -1.984375 C 5.285156 -2.390625 5.4375 -2.878906 5.4375 -3.453125 C 5.4375 -4.015625 5.285156 -4.5 4.984375 -4.90625 C 4.679688 -5.3125 4.242188 -5.515625 3.671875 -5.515625 C 3.097656 -5.515625 2.65625 -5.3125 2.34375 -4.90625 C 2.039062 -4.5 1.890625 -4.015625 1.890625 -3.453125 Z M 1.890625 -3.453125 "/></g></g></g><g fill="#6777ef" fill-opacity="1"><g transform="translate(264.900815, 271.287716)"><g><path d="M 0.1875 -3.453125 C 0.1875 -4.453125 0.523438 -5.296875 1.203125 -5.984375 C 1.890625 -6.671875 2.710938 -7.015625 3.671875 -7.015625 C 4.628906 -7.015625 5.445312 -6.671875 6.125 -5.984375 C 6.800781 -5.296875 7.140625 -4.453125 7.140625 -3.453125 C 7.140625 -2.441406 6.804688 -1.59375 6.140625 -0.90625 C 5.484375 -0.21875 4.660156 0.125 3.671875 0.125 C 2.660156 0.125 1.828125 -0.210938 1.171875 -0.890625 C 0.515625 -1.578125 0.1875 -2.429688 0.1875 -3.453125 Z M 1.890625 -3.453125 C 1.890625 -3.085938 1.941406 -2.753906 2.046875 -2.453125 C 2.160156 -2.160156 2.359375 -1.910156 2.640625 -1.703125 C 2.921875 -1.492188 3.265625 -1.390625 3.671875 -1.390625 C 4.253906 -1.390625 4.691406 -1.585938 4.984375 -1.984375 C 5.285156 -2.390625 5.4375 -2.878906 5.4375 -3.453125 C 5.4375 -4.015625 5.285156 -4.5 4.984375 -4.90625 C 4.679688 -5.3125 4.242188 -5.515625 3.671875 -5.515625 C 3.097656 -5.515625 2.65625 -5.3125 2.34375 -4.90625 C 2.039062 -4.5 1.890625 -4.015625 1.890625 -3.453125 Z M 1.890625 -3.453125 "/></g></g></g><g fill="#6777ef" fill-opacity="1"><g transform="translate(277.028217, 271.287716)"><g><path d="M 2.078125 -6.890625 L 2.078125 -1.375 L 4.453125 -1.375 L 4.453125 0 L 0.5 0 L 0.5 -6.890625 Z M 2.078125 -6.890625 "/></g></g></g></svg>